<svg width="15" height="19" viewBox="0 0 15 19" fill="none" xmlns="http://www.w3.org/2000/svg">
<path d="M5.376 16.344V11.256L0.552 3.24C0.36 2.928 0.216 2.568 0.216 2.208C0.216 0.863999 1.44 0.407999 2.208 0.407999C3.144 0.407999 3.576 0.792 3.984 1.56L7.416 7.872L10.824 1.56C11.28 0.696 11.712 0.407999 12.528 0.407999C13.248 0.407999 14.472 0.863999 14.472 2.208C14.472 2.568 14.328 2.928 14.136 3.24L9.312 11.256V16.344C9.312 17.52 8.544 18.312 7.344 18.312C6.144 18.312 5.376 17.52 5.376 16.344Z" fill="white"/>
</svg>
